<?xml version="1.0" encoding="utf-8"?>
<!-- Generator: Adobe Illustrator 24.1.2, SVG Export Plug-In . SVG Version: 6.00 Build 0)  -->
<svg version="1.1" id="레이어_1" xmlns="http://www.w3.org/2000/svg" xmlns:xlink="http://www.w3.org/1999/xlink" x="0px"
	 y="0px" viewBox="0 0 141.99 22" style="enable-background:new 0 0 141.99 22;" xml:space="preserve">
<style type="text/css">
	.st0{clip-path:url(#SVGID_2_);}
</style>
<polygon points="117.53,16.78 117.25,0.65 122.28,0.65 122.28,20.99 115.05,20.99 110.04,4.31 109.93,4.31 110.21,20.99 
	105.21,20.99 105.21,0.66 112.75,0.66 117.41,16.78 "/>
<polygon points="21.72,0.66 17.96,21.2 23.45,21.2 26.22,2.56 26.33,2.57 29.04,21.2 34.49,21.2 30.75,0.66 "/>
<polygon points="52.38,0.66 49.88,16.37 49.76,16.37 47.26,0.66 38.99,0.66 38.54,21.21 43.62,21.21 43.75,2.74 43.86,2.74 
	47.25,21.21 52.4,21.21 55.79,2.73 55.9,2.73 56.03,21.2 61.1,21.2 60.66,0.66 "/>
<g>
	<defs>
		<rect id="SVGID_1_" y="0" width="141.99" height="22"/>
	</defs>
	<clipPath id="SVGID_2_">
		<use xlink:href="#SVGID_1_"  style="overflow:visible;"/>
	</clipPath>
	<path class="st0" d="M9.42,15.4c0.16,0.49,0.17,1.02,0.04,1.52c-0.19,0.91-1.06,1.51-1.98,1.38c-1,0.12-1.91-0.59-2.03-1.59
		c-0.01-0.09-0.01-0.18-0.01-0.27v-1.99H0v1.58C0,20.62,3.57,22,7.38,22c3.67,0,6.69-1.27,7.17-4.7c0.18-1.11,0.17-2.25-0.02-3.37
		C13.67,9.63,5.97,8.35,5.4,5.94C5.32,5.59,5.31,5.22,5.38,4.87c0.15-0.88,0.97-1.48,1.86-1.38c0.96-0.08,1.8,0.62,1.88,1.58
		c0.01,0.09,0.01,0.19,0,0.28v1.27h5.07V5.17C14.18,0.7,10.21,0,7.34,0c-3.61,0-6.56,1.21-7.1,4.56C0.07,5.48,0.09,6.42,0.28,7.33
		C1.16,11.53,8.37,12.74,9.42,15.4"/>
	<path class="st0" d="M75.4,15.36c0.16,0.49,0.17,1.01,0.04,1.51c-0.19,0.9-1.05,1.5-1.96,1.36c-0.99,0.12-1.88-0.58-2.01-1.57
		c-0.01-0.09-0.02-0.18-0.01-0.27v-1.97h-5.39v1.57c0,4.54,3.53,5.91,7.3,5.91c3.63,0,6.62-1.25,7.1-4.65
		c0.18-1.1,0.17-2.23-0.02-3.33C79.6,9.65,71.98,8.38,71.41,6c-0.08-0.35-0.09-0.71-0.02-1.07c0.15-0.87,0.96-1.47,1.83-1.37
		c0.95-0.08,1.78,0.62,1.86,1.56c0.01,0.09,0.01,0.19,0,0.28v1.25h5.02V5.24c0-4.43-3.93-5.12-6.78-5.12
		c-3.57,0-6.49,1.19-7.02,4.51c-0.16,0.91-0.15,1.84,0.05,2.74C67.22,11.53,74.36,12.73,75.4,15.36"/>
	<path class="st0" d="M92.43,18.12c0.93,0.08,1.78-0.57,1.95-1.49c0.04-0.26,0.06-0.52,0.05-0.78V0.65h5.14v14.73
		c0.01,0.38-0.03,1.15-0.05,1.35c-0.36,3.83-3.35,5.08-7.08,5.08c-3.73,0-6.72-1.25-7.08-5.08c-0.02-0.2-0.06-0.97-0.05-1.35V0.65
		h5.13v15.2c-0.01,0.26,0.01,0.52,0.05,0.78C90.66,17.56,91.5,18.2,92.43,18.12"/>
	<path class="st0" d="M134.76,17.91c0.97,0.11,1.87-0.53,2.07-1.49c0.04-0.26,0.06-0.52,0.05-0.78v-2.98h-2.08V9.66h7.19v5.51
		c0,0.45-0.03,0.9-0.07,1.35c-0.34,3.74-3.54,5.07-7.14,5.07c-3.6,0-6.8-1.33-7.14-5.07c-0.05-0.45-0.07-0.9-0.07-1.35V6.53
		c0-0.37,0.04-1.01,0.09-1.35c0.45-3.84,3.52-5.08,7.12-5.08c3.6,0,6.75,1.22,7.13,5.08c0.04,0.45,0.05,0.9,0.04,1.35v0.68h-5.12
		V6.06c0-0.26-0.02-0.52-0.07-0.78c-0.18-0.95-1.07-1.6-2.03-1.49c-0.96-0.09-1.83,0.55-2.02,1.49c-0.06,0.32-0.09,0.65-0.08,0.97
		v9.39c-0.01,0.26,0.01,0.52,0.05,0.78C132.89,17.38,133.79,18.02,134.76,17.91"/>
</g>
</svg>
